<svg xmlns="http://www.w3.org/2000/svg" viewBox="0 0 64 64">
  <radialGradient id="hlb14vkQhQ_8czSJDGVeKa" cx="32.5" cy="32" r="30.276" gradientUnits="userSpaceOnUse" spreadMethod="reflect">
    <stop offset="0" stop-color="#afeeff"></stop>
    <stop offset=".193" stop-color="#bbf1ff"></stop>
    <stop offset=".703" stop-color="#d7f8ff"></stop>
    <stop offset="1" stop-color="#e1faff"></stop>
  </radialGradient>
  <linearGradient id="hlb14vkQhQ_8czSJDGVeKb" x1="32" x2="32" y1="57.998" y2="6" gradientUnits="userSpaceOnUse" spreadMethod="reflect">
    <stop offset="0" stop-color="#ff634d"></stop>
    <stop offset=".225" stop-color="#fd6467"></stop>
    <stop offset=".528" stop-color="#fc6583"></stop>
    <stop offset=".793" stop-color="#fa6694"></stop>
    <stop offset=".989" stop-color="#fa669a"></stop>
  </linearGradient>
  <path fill="url(#hlb14vkQhQ_8czSJDGVeKb)" d="M43,11.005c-3.572-1.223-6.46-2.82-8.651-4.289c-1.425-0.955-3.272-0.955-4.697,0 C27.46,8.185,24.573,9.782,21,11.005c-3.889,1.331-7.4,1.811-10.113,1.951c-1.065,0.055-1.888,0.935-1.884,2.001 C9.041,25.628,9.699,38.701,21,50.001c1.659,1.659,5.961,5.08,8.667,7.193c1.372,1.071,3.293,1.071,4.665,0 c2.706-2.113,7.008-5.534,8.667-7.193c11.301-11.3,11.959-24.373,11.998-35.045c0.004-1.066-0.82-1.946-1.884-2.001 C50.4,12.815,46.889,12.336,43,11.005z"></path>
  <path fill="#fff" d="M32,44c-7.168,0-13-5.832-13-13s5.832-13,13-13s13,5.832,13,13S39.168,44,32,44z M32,22 c-4.963,0-9,4.038-9,9s4.037,9,9,9s9-4.038,9-9S36.963,22,32,22z"></path>
  <path fill="#fff" d="M23.583,36.588l14.005-14.005c0.778-0.778,2.051-0.778,2.828,0l0,0c0.778,0.778,0.778,2.051,0,2.828 L26.412,39.417c-0.778,0.778-2.051,0.778-2.828,0l0,0C22.806,38.639,22.806,37.366,23.583,36.588z"></path>
</svg>
