<svg id="visual" viewBox="0 0 900 600" width="900" height="600" xmlns="http://www.w3.org/2000/svg" xmlns:xlink="http://www.w3.org/1999/xlink" version="1.1"><rect x="0" y="0" width="900" height="600" fill="#001220"></rect><defs><linearGradient id="grad1_0" x1="33.3%" y1="0%" x2="100%" y2="100%"><stop offset="20%" stop-color="#fbae3c" stop-opacity="1"></stop><stop offset="80%" stop-color="#fbae3c" stop-opacity="1"></stop></linearGradient></defs><defs><linearGradient id="grad1_1" x1="33.3%" y1="0%" x2="100%" y2="100%"><stop offset="20%" stop-color="#fbae3c" stop-opacity="1"></stop><stop offset="80%" stop-color="#f48350" stop-opacity="1"></stop></linearGradient></defs><defs><linearGradient id="grad1_2" x1="33.3%" y1="0%" x2="100%" y2="100%"><stop offset="20%" stop-color="#d96162" stop-opacity="1"></stop><stop offset="80%" stop-color="#f48350" stop-opacity="1"></stop></linearGradient></defs><defs><linearGradient id="grad1_3" x1="33.3%" y1="0%" x2="100%" y2="100%"><stop offset="20%" stop-color="#d96162" stop-opacity="1"></stop><stop offset="80%" stop-color="#af4b6d" stop-opacity="1"></stop></linearGradient></defs><defs><linearGradient id="grad1_4" x1="33.3%" y1="0%" x2="100%" y2="100%"><stop offset="20%" stop-color="#7c3e6b" stop-opacity="1"></stop><stop offset="80%" stop-color="#af4b6d" stop-opacity="1"></stop></linearGradient></defs><defs><linearGradient id="grad1_5" x1="33.3%" y1="0%" x2="100%" y2="100%"><stop offset="20%" stop-color="#7c3e6b" stop-opacity="1"></stop><stop offset="80%" stop-color="#49335c" stop-opacity="1"></stop></linearGradient></defs><defs><linearGradient id="grad1_6" x1="33.3%" y1="0%" x2="100%" y2="100%"><stop offset="20%" stop-color="#1d2540" stop-opacity="1"></stop><stop offset="80%" stop-color="#49335c" stop-opacity="1"></stop></linearGradient></defs><defs><linearGradient id="grad1_7" x1="33.3%" y1="0%" x2="100%" y2="100%"><stop offset="20%" stop-color="#1d2540" stop-opacity="1"></stop><stop offset="80%" stop-color="#001220" stop-opacity="1"></stop></linearGradient></defs><defs><linearGradient id="grad2_0" x1="0%" y1="0%" x2="66.7%" y2="100%"><stop offset="20%" stop-color="#fbae3c" stop-opacity="1"></stop><stop offset="80%" stop-color="#fbae3c" stop-opacity="1"></stop></linearGradient></defs><defs><linearGradient id="grad2_1" x1="0%" y1="0%" x2="66.7%" y2="100%"><stop offset="20%" stop-color="#f48350" stop-opacity="1"></stop><stop offset="80%" stop-color="#fbae3c" stop-opacity="1"></stop></linearGradient></defs><defs><linearGradient id="grad2_2" x1="0%" y1="0%" x2="66.7%" y2="100%"><stop offset="20%" stop-color="#f48350" stop-opacity="1"></stop><stop offset="80%" stop-color="#d96162" stop-opacity="1"></stop></linearGradient></defs><defs><linearGradient id="grad2_3" x1="0%" y1="0%" x2="66.7%" y2="100%"><stop offset="20%" stop-color="#af4b6d" stop-opacity="1"></stop><stop offset="80%" stop-color="#d96162" stop-opacity="1"></stop></linearGradient></defs><defs><linearGradient id="grad2_4" x1="0%" y1="0%" x2="66.7%" y2="100%"><stop offset="20%" stop-color="#af4b6d" stop-opacity="1"></stop><stop offset="80%" stop-color="#7c3e6b" stop-opacity="1"></stop></linearGradient></defs><defs><linearGradient id="grad2_5" x1="0%" y1="0%" x2="66.7%" y2="100%"><stop offset="20%" stop-color="#49335c" stop-opacity="1"></stop><stop offset="80%" stop-color="#7c3e6b" stop-opacity="1"></stop></linearGradient></defs><defs><linearGradient id="grad2_6" x1="0%" y1="0%" x2="66.7%" y2="100%"><stop offset="20%" stop-color="#49335c" stop-opacity="1"></stop><stop offset="80%" stop-color="#1d2540" stop-opacity="1"></stop></linearGradient></defs><defs><linearGradient id="grad2_7" x1="0%" y1="0%" x2="66.7%" y2="100%"><stop offset="20%" stop-color="#001220" stop-opacity="1"></stop><stop offset="80%" stop-color="#1d2540" stop-opacity="1"></stop></linearGradient></defs><g transform="translate(900, 0)"><path d="M0 486.7C-71.6 488.1 -143.2 489.5 -186.3 449.7C-229.3 409.9 -243.8 329.1 -279.3 279.3C-314.8 229.5 -371.2 210.9 -409.3 169.5C-447.3 128.2 -467 64.1 -486.7 0L0 0Z" fill="#0c1c30"></path><path d="M0 425.9C-62.7 427.1 -125.3 428.3 -163 393.5C-200.7 358.7 -213.4 287.9 -244.4 244.4C-275.4 200.9 -324.8 184.5 -358.1 148.3C-391.4 112.1 -408.7 56.1 -425.9 0L0 0Z" fill="#312c4f"></path><path d="M0 365.1C-53.7 366.1 -107.4 367.1 -139.7 337.3C-172 307.5 -182.9 246.8 -209.5 209.5C-236.1 172.2 -278.4 158.2 -307 127.1C-335.5 96.1 -350.3 48.1 -365.1 0L0 0Z" fill="#623965"></path><path d="M0 304.2C-44.8 305.1 -89.5 305.9 -116.4 281.1C-143.3 256.2 -152.4 205.7 -174.6 174.6C-196.7 143.5 -232 131.8 -255.8 106C-279.6 80.1 -291.9 40.1 -304.2 0L0 0Z" fill="#96446e"></path><path d="M0 243.4C-35.8 244.1 -71.6 244.7 -93.1 224.8C-114.7 205 -121.9 164.5 -139.7 139.7C-157.4 114.8 -185.6 105.4 -204.6 84.8C-223.7 64.1 -233.5 32 -243.4 0L0 0Z" fill="#c55469"></path><path d="M0 182.5C-26.9 183 -53.7 183.5 -69.9 168.6C-86 153.7 -91.4 123.4 -104.7 104.7C-118 86.1 -139.2 79.1 -153.5 63.6C-167.8 48.1 -175.1 24 -182.5 0L0 0Z" fill="#e9705a"></path><path d="M0 121.7C-17.9 122 -35.8 122.4 -46.6 112.4C-57.3 102.5 -61 82.3 -69.8 69.8C-78.7 57.4 -92.8 52.7 -102.3 42.4C-111.8 32 -116.8 16 -121.7 0L0 0Z" fill="#fa9845"></path><path d="M0 60.8C-9 61 -17.9 61.2 -23.3 56.2C-28.7 51.2 -30.5 41.1 -34.9 34.9C-39.3 28.7 -46.4 26.4 -51.2 21.2C-55.9 16 -58.4 8 -60.8 0L0 0Z" fill="#fbae3c"></path></g><g transform="translate(0, 600)"><path d="M0 -486.7C68.9 -486.3 137.9 -485.8 186.3 -449.7C234.7 -413.6 262.5 -341.8 287.8 -287.8C313.1 -233.8 335.9 -197.7 368.6 -152.7C401.4 -107.7 444.1 -53.8 486.7 0L0 0Z" fill="#0c1c30"></path><path d="M0 -425.9C60.3 -425.5 120.6 -425.1 163 -393.5C205.3 -361.9 229.7 -299 251.8 -251.8C274 -204.6 293.9 -173 322.5 -133.6C351.2 -94.2 388.6 -47.1 425.9 0L0 0Z" fill="#312c4f"></path><path d="M0 -365.1C51.7 -364.7 103.4 -364.4 139.7 -337.3C176 -310.2 196.9 -256.3 215.8 -215.8C234.8 -175.4 251.9 -148.3 276.5 -114.5C301 -80.8 333 -40.4 365.1 0L0 0Z" fill="#623965"></path><path d="M0 -304.2C43.1 -303.9 86.2 -303.6 116.4 -281.1C146.7 -258.5 164.1 -213.6 179.9 -179.9C195.7 -146.1 209.9 -123.6 230.4 -95.4C250.9 -67.3 277.5 -33.7 304.2 0L0 0Z" fill="#96446e"></path><path d="M0 -243.4C34.5 -243.1 68.9 -242.9 93.1 -224.8C117.3 -206.8 131.2 -170.9 143.9 -143.9C156.6 -116.9 167.9 -98.8 184.3 -76.3C200.7 -53.8 222 -26.9 243.4 0L0 0Z" fill="#c55469"></path><path d="M0 -182.5C25.9 -182.4 51.7 -182.2 69.9 -168.6C88 -155.1 98.4 -128.2 107.9 -107.9C117.4 -87.7 126 -74.1 138.2 -57.3C150.5 -40.4 166.5 -20.2 182.5 0L0 0Z" fill="#e9705a"></path><path d="M0 -121.7C17.2 -121.6 34.5 -121.5 46.6 -112.4C58.7 -103.4 65.6 -85.4 71.9 -71.9C78.3 -58.5 84 -49.4 92.2 -38.2C100.3 -26.9 111 -13.5 121.7 0L0 0Z" fill="#fa9845"></path><path d="M0 -60.8C8.6 -60.8 17.2 -60.7 23.3 -56.2C29.3 -51.7 32.8 -42.7 36 -36C39.1 -29.2 42 -24.7 46.1 -19.1C50.2 -13.5 55.5 -6.7 60.8 0L0 0Z" fill="#fbae3c"></path></g></svg>