<svg width="1024" height="1024" viewBox="0 0 1024 1024" fill="none" xmlns="http://www.w3.org/2000/svg">
<path d="M998.128 156.517L538.582 977.439C529.093 994.388 504.717 994.488 495.087 977.621L26.4285 156.596C15.9366 138.216 31.6696 115.952 52.519 119.675L512.557 201.821C515.492 202.345 518.496 202.34 521.431 201.806L971.848 119.793C992.628 116.009 1008.44 138.1 998.128 156.517Z" fill="url(#paint0_linear_1_11)"/>
<path d="M731.698 11.9282L391.62 78.4981C386.031 79.5922 381.892 84.3243 381.555 90.0033L360.635 442.962C360.143 451.276 367.786 457.728 375.908 455.856L470.59 434.027C479.449 431.986 487.454 439.781 485.633 448.681L457.503 586.29C455.61 595.552 464.314 603.471 473.368 600.724L531.848 582.974C540.914 580.225 549.626 588.166 547.708 597.436L503.004 813.589C500.207 827.11 518.209 834.483 525.717 822.891L530.732 815.149L807.846 262.675C812.487 253.424 804.484 242.876 794.314 244.837L696.855 263.628C687.696 265.392 679.904 256.871 682.489 247.92L746.099 27.6283C748.686 18.6617 740.867 10.1337 731.698 11.9282Z" fill="url(#paint1_linear_1_11)"/>
<defs>
<linearGradient id="paint0_linear_1_11" x1="14.9858" y1="90.3364" x2="586.181" y2="866.846" gradientUnits="userSpaceOnUse">
<stop stop-color="#41D1FF"/>
<stop offset="1" stop-color="#BD34FE"/>
</linearGradient>
<linearGradient id="paint1_linear_1_11" x1="486.153" y1="30.0018" x2="589.411" y2="739.052" gradientUnits="userSpaceOnUse">
<stop stop-color="#FFEA83"/>
<stop offset="0.0833333" stop-color="#FFDD35"/>
<stop offset="1" stop-color="#FFA800"/>
</linearGradient>
</defs>
</svg>
