<svg width="1024" height="1024" viewBox="0 0 1024 1024" fill="none" xmlns="http://www.w3.org/2000/svg">
<rect width="1024" height="1024" fill="white"/>
<path d="M829.173 279.654L530.288 813.905C524.117 824.935 508.263 825 502 814.023L197.189 279.705C190.365 267.743 200.598 253.254 214.158 255.677L513.362 309.138C515.271 309.479 517.225 309.475 519.134 309.128L812.081 255.754C825.596 253.292 835.877 267.668 829.173 279.654Z" fill="url(#paint0_linear_1_6)"/>
<path d="M655.889 185.556L434.706 228.88C431.071 229.592 428.379 232.671 428.16 236.367L414.554 466.07C414.234 471.481 419.204 475.68 424.487 474.462L486.068 460.256C491.829 458.928 497.035 464 495.851 469.792L477.556 559.348C476.325 565.375 481.986 570.529 487.874 568.741L525.909 557.19C531.806 555.4 537.471 560.569 536.224 566.601L507.149 707.272C505.33 716.071 517.038 720.87 521.921 713.326L525.183 708.287L705.416 348.741C708.434 342.721 703.229 335.856 696.615 337.132L633.228 349.361C627.271 350.509 622.203 344.964 623.884 339.138L665.256 195.774C666.939 189.939 661.853 184.389 655.889 185.556Z" fill="url(#paint1_linear_1_6)"/>
<defs>
<linearGradient id="paint0_linear_1_6" x1="189.747" y1="236.584" x2="561.545" y2="741.711" gradientUnits="userSpaceOnUse">
<stop stop-color="#41D1FF"/>
<stop offset="1" stop-color="#BD34FE"/>
</linearGradient>
<linearGradient id="paint1_linear_1_6" x1="496.189" y1="197.319" x2="563.429" y2="658.752" gradientUnits="userSpaceOnUse">
<stop stop-color="#FFEA83"/>
<stop offset="0.0833333" stop-color="#FFDD35"/>
<stop offset="1" stop-color="#FFA800"/>
</linearGradient>
</defs>
</svg>
